<?xml version="1.0" standalone="no"?>
<!DOCTYPE svg PUBLIC "-//W3C//DTD SVG 20010904//EN"
 "http://www.w3.org/TR/2001/REC-SVG-20010904/DTD/svg10.dtd">
<svg version="1.0" xmlns="http://www.w3.org/2000/svg"
 width="196.000000pt" height="298.000000pt" viewBox="0 0 196.000000 298.000000"
 preserveAspectRatio="xMidYMid meet">
<metadata>
Created by potrace 1.10, written by Peter Selinger 2001-2011
</metadata>
<g transform="translate(0.000000,298.000000) scale(0.100000,-0.100000)"
fill="#000000" stroke="none">
<path d="M429 2693 c-11 -12 -15 -67 -17 -233 l-3 -217 41 -51 c44 -57 66 -64
79 -29 5 13 9 133 10 267 0 212 -2 246 -16 262 -20 23 -76 24 -94 1z m81 -275
l0 -261 -35 39 -34 39 -1 223 0 222 35 0 35 0 0 -262z"/>
<path d="M597 2692 c-15 -16 -17 -54 -17 -325 0 -168 4 -316 9 -329 5 -13 22
-37 38 -53 16 -17 67 -75 113 -130 48 -58 99 -109 123 -122 l40 -23 -55 0
c-68 0 -84 -15 -93 -92 -8 -63 -12 -68 -104 -123 -104 -62 -199 -165 -254
-275 -67 -135 -81 -198 -74 -345 4 -104 9 -131 36 -198 44 -111 101 -195 184
-273 57 -55 176 -135 207 -139 3 -1 30 -8 60 -17 30 -10 71 -20 90 -24 93 -18
271 3 370 44 72 29 185 107 237 162 61 64 124 169 156 257 29 83 31 96 31 223
0 121 -3 143 -27 212 -15 43 -44 105 -63 139 -50 85 -160 198 -234 239 -84 48
-88 52 -95 117 -10 77 -25 93 -89 94 l-51 0 40 18 c42 19 45 22 165 166 41 50
85 101 97 115 26 28 25 2 24 403 0 190 -3 273 -12 283 -9 12 -81 14 -424 14
-386 0 -413 -1 -428 -18z m843 -327 l0 -315 -121 -142 c-109 -127 -127 -144
-172 -160 -28 -10 -51 -18 -52 -18 0 0 -1 -11 -1 -25 -2 -25 0 -25 71 -25 l73
0 12 -68 c6 -37 14 -72 18 -78 4 -6 36 -26 72 -45 78 -41 191 -151 239 -232
148 -251 123 -555 -65 -783 -76 -93 -236 -188 -359 -215 -102 -21 -249 -17
-330 10 -192 63 -330 179 -409 343 -56 118 -69 177 -69 308 0 180 60 319 197
455 53 53 104 92 148 115 72 38 69 32 93 158 l7 32 79 0 c77 0 79 1 79 25 0
20 -8 27 -51 42 -46 16 -63 32 -170 158 l-119 140 0 318 0 317 415 0 415 0 0
-315z"/>
<path d="M870 1586 c0 -23 2 -23 48 -14 46 9 195 4 226 -8 12 -5 16 0 16 20
l0 26 -145 0 -145 0 0 -24z"/>
<path d="M1507 2692 c-15 -16 -17 -50 -17 -273 0 -257 3 -279 37 -279 7 0 31
23 53 51 l40 51 0 217 c0 198 -2 219 -18 234 -25 22 -75 21 -95 -1z m83 -234
l-1 -223 -34 -39 -35 -39 0 261 0 262 35 0 35 0 0 -222z"/>
</g>
</svg>
